<?xml version="1.0" encoding="UTF-8"?> <!-- Generator: Adobe Illustrator 23.1.0, SVG Export Plug-In . SVG Version: 6.00 Build 0) --> <svg xmlns:cc="http://creativecommons.org/ns#" xmlns:dc="http://purl.org/dc/elements/1.1/" xmlns:rdf="http://www.w3.org/1999/02/22-rdf-syntax-ns#" xmlns:svg="http://www.w3.org/2000/svg" xmlns="http://www.w3.org/2000/svg" xmlns:xlink="http://www.w3.org/1999/xlink" id="svg2__x28_копия_x29_" x="0px" y="0px" viewBox="0 0 1094.6 419.8" style="enable-background:new 0 0 1094.6 419.8;" xml:space="preserve"> <style type="text/css"> .st0{fill-rule:evenodd;clip-rule:evenodd;fill:#F27E00;} .st1{fill:#F27E00;} </style> <path id="path6_1_" class="st0" d="M73.9,70.9L192.9,0L312,70.9l-119.1,70.9L73.9,70.9L73.9,70.9z"></path> <path id="path8_1_" class="st0" d="M241.5,357l-0.2-138.6L363,152.1l0.2,138.6L241.5,357L241.5,357z"></path> <path id="path10_1_" class="st0" d="M150.1,357l0.2-138.6L28.6,152.1l-0.2,138.6L150.1,357L150.1,357z"></path> <path id="path12_1_" class="st0" d="M73.9,348.7l11.3-6.7l77.4,43.8l0.2-90l30.2-18l35.2,20.9L228,386l73.9-43.2l10.3,6.1 l-119.1,70.9L73.9,348.7L73.9,348.7z"></path> <path id="path14_1_" class="st0" d="M389,222.6l-11.5-6.3l-1.8-89.1L298.2,173l-30.8-16.8v-40.9l75-44.4l-75-41.5V17.6L389,83.9 V222.6L389,222.6z"></path> <path id="path16_1_" class="st0" d="M0.2,222.6l11.5-6.3l1.8-89.1L91,172.8l30.8-16.8v-40.9l-75-44.4l75-41.5V17.4L0,83.9L0.2,222.6 L0.2,222.6z"></path> <path id="path18_1_" class="st0" d="M631.6,181.7H600l-8.3-23.9h-43.6l-8.3,23.9h-31l43.6-118.5h35.5L631.6,181.7L631.6,181.7z M584.4,136.1L570,94l-14.4,42.1H584.4L584.4,136.1z M734.3,181.7h-85.5V63.2h30.6v95.6h54.7v22.9H734.3z M806.4,184 c-8.9,0-17-1.4-24.5-3.9c-7.5-2.6-13.8-6.5-19.2-11.7c-5.3-5.1-9.5-11.7-12.4-19.4c-3-7.7-4.3-16.6-4.3-26.7c0-9.5,1.4-18,4.1-25.7 c2.8-7.7,6.9-14.2,12.2-19.7c5.1-5.3,11.5-9.3,19.2-12.2c7.7-3,16-4.3,25.1-4.3c4.9,0,9.5,0.2,13.4,0.8s7.7,1.2,11.1,2.2 c3.6,1,6.7,2.2,9.7,3.4s5.5,2.4,7.7,3.6v28.8h-3.6c-1.6-1.2-3.4-2.8-5.5-4.5c-2.2-1.8-4.7-3.4-7.7-5.1c-3-1.8-6.1-3.2-9.5-4.3 c-3.4-1.2-7.1-1.8-10.9-1.8c-4.3,0-8.5,0.6-12.2,2c-3.9,1.4-7.5,3.6-10.7,6.7c-3.2,3-5.7,7.1-7.7,12s-3,11.1-3,18.2 c0,7.5,1,13.6,3.2,18.6c2.2,5,4.7,8.9,7.9,11.8c3.2,3,6.9,4.9,10.9,6.3c3.9,1.2,7.9,1.8,11.8,1.8c3.8,0,7.5-0.6,11.1-1.6 c3.6-1.2,6.9-2.6,10.1-4.5c2.6-1.6,4.9-3.2,7.3-4.9c2.2-1.8,4.1-3.2,5.5-4.5h3.2v28.2c-3,1.4-5.7,2.6-8.5,3.8 c-2.8,1.2-5.5,2.2-8.5,3c-3.9,1.2-7.5,2-10.9,2.6C817,183.8,812.3,184,806.4,184L806.4,184z M980.1,181.7h-31.6l-8.3-23.9h-43.6 l-8.3,23.9h-31l43.6-118.5h35.2L980.1,181.7z M932.9,136.1L918.5,94l-14.4,42.1H932.9z M1092.1,144.4c0,11.7-4.9,21.1-14.8,28.4 s-23.3,10.9-40.3,10.9c-9.9,0-18.4-0.8-25.7-2.6c-7.3-1.8-14.2-3.9-20.5-6.5v-28.4h3.4c6.3,4.9,13.4,8.9,21.1,11.7 c7.9,2.8,15.4,4.1,22.5,4.1c1.8,0,4.3-0.2,7.3-0.4c3-0.4,5.5-0.8,7.3-1.6c2.4-1,4.1-2.2,5.7-3.6s2.2-3.6,2.2-6.3 c0-2.6-1.2-4.7-3.4-6.7c-2.2-1.8-5.5-3.4-9.7-4.3c-4.5-1-9.1-2-14.2-3c-4.9-1-9.7-2.2-14-3.6c-10.1-3.2-17.2-7.7-21.5-13.2 c-4.3-5.5-6.5-12.4-6.5-20.7c0-11.1,4.9-19.9,14.8-27.1c9.9-6.9,22.7-10.5,38.1-10.5c7.7,0,15.4,0.8,23.1,2.2 c7.7,1.6,14.2,3.4,19.7,5.7v27.3h-3.4c-4.7-3.8-10.7-6.9-17.6-9.5s-14-3.8-21.1-3.8c-2.6,0-5.1,0.2-7.5,0.6c-2.6,0.4-4.9,1-7.3,2 c-2,0.8-3.8,2-5.3,3.6c-1.6,1.6-2.2,3.4-2.2,5.5c0,3.2,1.2,5.5,3.6,7.1s6.9,3.2,13.4,4.5c4.3,1,8.5,1.8,12.6,2.6 c3.9,0.8,8.3,2,12.8,3.6c9.1,3,15.8,7.1,20.1,12C1089.9,129.5,1092.1,136.3,1092.1,144.4L1092.1,144.4z"></path> <g> <path class="st1" d="M577.4,292.2c9.9-5.5,15.8-14.5,15.8-24.7c0-10.2-5.2-19-14.2-24.1c-8.5-5.6-18.9-7.7-36.9-7.7 c-12.5,0-25.9,1-33.4,2.5l-2.3,0.6v2.3v115.5l2.6,0.4c4.3,0.6,13.7,1.6,28,1.6c22.8,0,38-3.6,47.6-11.3c8.5-6.6,13-15.6,13-26.1 C597.6,306.2,588.1,296.8,577.4,292.2z M534.4,336.1v-31.3h8.3c7.5,0,25,1.5,25,15.8c0,14.1-15.2,16.2-24.3,16.2 c-3.5,0-6.4-0.1-8.8-0.3v-0.4H534.4z M543.1,283.5h-8.6v-25.8c2.2-0.2,5.3-0.4,9.8-0.4c13.3,0,20.1,4.2,20.1,12.6 C564.4,278.5,556.4,283.5,543.1,283.5z"></path> <polygon class="st1" points="653.9,334.2 653.9,306.4 702.3,306.4 702.3,283.5 653.7,283.5 653.7,259.9 704.8,259.9 704.8,236.7 624.4,236.7 624.4,357.4 707.8,357.4 707.8,334.2 "></polygon> <polygon class="st1" points="724.3,236.4 724.3,260 758.6,260 758.6,357.2 786.5,357.2 786.5,260 821.1,260 821.1,236.4 "></polygon> <path class="st1" d="M946.1,252.3c-11.5-11.5-27.6-17.5-46.6-17.5c-38.3,0-65,25.9-65,63c0,17.3,6.1,32.9,17.1,43.9 c11.4,11.4,27.3,17.4,45.9,17.4c18.9,0,35.1-5.7,46.9-16.6c12.3-11.3,18.7-27.5,18.7-46.8C963.1,278.7,957,263.3,946.1,252.3z M898.7,336.4c-22.9,0-33.1-19.5-33.1-38.9c0-24.2,13-39.8,33.1-39.9c22.7,0,33.1,20.3,33.1,39.1 C931.8,320.9,918.8,336.4,898.7,336.4z"></path> <path class="st1" d="M1066.6,236.7v42.9c0,12.6,0.3,23.3,1,33.5c-4.8-8.9-10.2-17.8-15.8-26l-34.5-50.5h-31.5v120.7h27.7v-44.1 c0-13.6-0.1-25.5-0.6-36.6c4.7,8.5,10.6,18.1,17.8,29l34.7,51.9h29.1V236.7H1066.6z"></path> </g> </svg> 